#!OML:ASF E:\Style4\Style4.ASF
:FULLY-SPECIFIED
:DEGREES
4156
root 0.00542861 17.5546 -1.67022 8.51627 4.61397 3.92276
lowerback 17.0493 4.60291 -0.380597
upperback 10.4456 5.9787 -3.66943
thorax 2.05084 3.13755 -4.53607
lowerneck 5.79714 -3.8295 -3.24175
upperneck -0.751327 -5.15147 7.04711
head -0.956578 -2.6779 2.94341
rclavicle -1.17283e-014 6.36111e-015
rhumerus 58.7705 25.9775 -42.6985
rradius 54.0924
rwrist -5.95937
rhand 35.0215 2.33757
rfingers 7.12502
rthumb 58.1559 -13.2431
lclavicle -1.17283e-014 6.36111e-015
lhumerus 36.4822 -7.25247 45.395
lradius 74.9261
lwrist 19.2518
lhand 29.1076 35.6896
lfingers 7.12502
lthumb 52.9029 55.2433
rfemur -31.0725 -8.51147 15.8797
rtibia 43.1048
rfoot -18.0439 -17.7598
rtoes -13.1567
lfemur -29.2999 -0.532854 -22.2269
ltibia 36.9391
lfoot -15.5143 4.60969
ltoes -16.1061
4157
root 0.00463432 17.5598 -1.67703 8.66814 4.63087 3.86765
lowerback 17.0803 4.6115 -0.376333
upperback 10.4384 5.98834 -3.62093
thorax 2.02212 3.13996 -4.49158
lowerneck 5.82311 -3.83753 -3.38374
upperneck -0.843457 -5.16993 6.99265
head -0.987584 -2.68729 2.95448
rclavicle 4.19436e-014 -5.48646e-014
rhumerus 58.7912 25.7987 -42.7019
rradius 54.2085
rwrist -5.92498
rhand 34.7914 2.35417
rfingers 7.12502
rthumb 57.9553 -13.4073
lclavicle 4.19436e-014 -5.48646e-014
lhumerus 36.2784 -7.35092 45.2278
lradius 75.2127
lwrist 19.6907
lhand 28.8571 35.5664
lfingers 7.12502
lthumb 52.6765 55.2614
rfemur -31.2341 -8.48087 15.9745
rtibia 43.0273
rfoot -17.9025 -17.8599
rtoes -13.5784
lfemur -29.4467 -0.554793 -22.1586
ltibia 36.8302
lfoot -15.4208 4.64462
ltoes -16.343
4158
root 0.00300991 17.5642 -1.68458 8.84869 4.65398 3.90077
lowerback 17.0807 4.61702 -0.481359
upperback 10.4265 5.98012 -3.61454
thorax 1.99635 3.12964 -4.42599
lowerneck 5.86947 -3.83826 -3.4352
upperneck -0.960475 -5.17178 6.93168
head -1.03341 -2.68913 2.9477
rclavicle -2.26615e-014 2.36554e-014
rhumerus 58.8118 25.6227 -42.7634
rradius 54.3655
rwrist -5.95864
rhand 34.4811 2.23137
rfingers 7.12502
rthumb 57.6842 -13.7701
lclavicle -2.26615e-014 2.36554e-014
lhumerus 36.0751 -7.4691 44.938
lradius 75.4675
lwrist 20.0437
lhand 28.7062 35.4612
lfingers 7.12502
lthumb 52.5401 55.2405
rfemur -31.4332 -8.47212 15.9701
rtibia 42.9852
rfoot -17.8289 -17.8995
rtoes -13.4139
lfemur -29.6201 -0.58743 -22.1875
ltibia 36.7228
lfoot -15.315 4.64238
ltoes -16.2717
4159
root -0.000715677 17.5669 -1.69386 9.0242 4.74478 4.02777
lowerback 17.1291 4.61742 -0.643147
upperback 10.39 5.95525 -3.63546
thorax 1.91558 3.10879 -4.36108
lowerneck 5.93477 -3.83969 -3.4835
upperneck -1.01011 -5.17632 6.91783
head -1.05984 -2.6925 2.95535
rclavicle 6.36111e-015 -7.15625e-015
rhumerus 58.6915 25.4538 -43.0092
rradius 54.4776
rwrist -5.83106
rhand 34.3456 2.30716
rfingers 7.12502
rthumb 57.5656 -13.7977
lclavicle 6.36111e-015 -7.15625e-015
lhumerus 35.8838 -7.64693 44.7527
lradius 75.7045
lwrist 20.2045
lhand 28.5569 35.3942
lfingers 7.12502
lthumb 52.4049 55.2562
rfemur -31.6326 -8.50375 15.8616
rtibia 42.9816
rfoot -17.7538 -17.9434
rtoes -13.4538
lfemur -29.7925 -0.627157 -22.3171
ltibia 36.6154
lfoot -15.1679 4.59763
ltoes -16.6035
